<svg width="157" height="32" viewBox="0 0 157 32" fill="none" xmlns="http://www.w3.org/2000/svg">
<path d="M73.7571 24.651H72.4712V31.5265H73.7571V24.651Z" fill="#113255"/>
<path d="M77.0675 25.83H74.887V24.651H80.5444V25.83H78.3664V31.5265H77.0675V25.83Z" fill="#113255"/>
<path d="M88.0011 31.5369V28.7564H84.6208V31.5369H83.3245V24.6614H84.6208V27.5592H88.0011V24.6614H89.287V31.5369H88.0011Z" fill="#113255"/>
<path d="M97.2635 28.1278C97.2426 29.9067 96.1523 31.683 93.737 31.683C91.3218 31.683 90.2002 29.9432 90.2002 28.1357C90.2002 26.3281 91.3609 24.5101 93.737 24.5101C96.1132 24.5101 97.2817 26.3281 97.2635 28.1252M91.4783 28.1539C91.507 29.2833 92.1173 30.491 93.737 30.491C95.3568 30.491 95.9671 29.2729 95.9854 28.1435C96.0063 26.9854 95.3568 25.6865 93.737 25.6865C92.1173 25.6865 91.4496 26.9932 91.4783 28.1513" fill="#113255"/>
<path d="M104.248 24.6614V28.5999C104.248 30.6318 103.001 31.6751 101.272 31.6751C99.5428 31.6751 98.2178 30.6735 98.2178 28.5999V24.6614H99.5037V28.5999C99.5037 29.8363 100.211 30.4962 101.283 30.4962C102.355 30.4962 102.962 29.7789 102.962 28.5999V24.6614H104.248Z" fill="#113255"/>
<path d="M109.757 26.3098C109.522 25.9159 108.873 25.5429 108.127 25.5429C107.165 25.5429 106.703 25.9446 106.703 26.4559C106.703 27.0558 107.41 27.2227 108.234 27.3192C109.669 27.4966 111.004 27.8696 111.004 29.5102C111.004 31.0439 109.648 31.7011 108.117 31.7011C106.711 31.7011 105.631 31.2682 105.12 30.011L106.199 29.4502C106.505 30.2066 107.3 30.5405 108.135 30.5405C108.969 30.5405 109.715 30.2562 109.715 29.5102C109.715 28.8633 109.037 28.5973 108.124 28.4982C106.719 28.3312 105.422 27.9582 105.422 26.4167C105.422 25.003 106.818 24.424 108.085 24.4136C109.155 24.4136 110.266 24.7187 110.787 25.7777L109.757 26.3072V26.3098Z" fill="#113255"/>
<path d="M117.133 31.5265H111.987V24.651H117.133V25.9082H113.273V27.4888H116.998V28.6965H113.273V30.2484H117.133V31.5265Z" fill="#113255"/>
<path d="M135.582 18.6597H127.627V20.6342H135.582V18.6597Z" fill="#113255"/>
<path d="M93.3508 18.6597H85.3955V20.6342H93.3508V18.6597Z" fill="#113255"/>
<path d="M40.585 15.3237C41.5709 14.8829 41.9674 14.0952 41.9674 13.2736C41.9674 11.1322 40.405 10.1906 38.308 10.1906H33.2661V20.8194H38.308C40.5094 20.8194 42.2856 20.0604 42.2856 17.692C42.2856 17.0243 41.8292 15.7019 40.585 15.3237ZM35.2406 12.0138H38.308C39.5834 12.0138 39.9773 12.8328 39.9773 13.3205C39.9773 13.9283 39.5678 14.4604 38.308 14.4604H35.2406V12.0164V12.0138ZM38.308 18.9518H35.2406V16.2183H38.308C39.127 16.2183 40.2981 16.7191 40.2981 17.6764C40.2981 18.6336 39.1296 18.9518 38.308 18.9518Z" fill="#113255"/>
<path d="M59.9307 18.9936C57.3041 18.9936 56.2869 17.1574 56.2712 15.3942C56.2556 13.6179 57.3641 11.706 59.9307 11.706C60.8566 11.706 61.7982 12.0242 62.4972 12.7076L63.8327 11.4165C62.7398 10.3393 61.3731 9.79154 59.9307 9.79154C56.0886 9.79154 54.2811 12.6163 54.2967 15.3942C54.3124 18.159 55.9817 20.8768 59.9307 20.8768C61.4643 20.8768 62.8754 20.376 63.9683 19.2962L62.6016 17.9138C61.9025 18.6128 60.8566 18.991 59.9307 18.991" fill="#113255"/>
<path d="M111.377 18.9936C108.75 18.9936 107.733 17.1574 107.717 15.3942C107.702 13.6179 108.81 11.706 111.377 11.706C112.303 11.706 113.244 12.0242 113.943 12.7076L115.279 11.4165C114.186 10.3393 112.819 9.79154 111.377 9.79154C107.535 9.79154 105.727 12.6163 105.743 15.3942C105.758 18.159 107.428 20.8768 111.377 20.8768C112.91 20.8768 114.321 20.376 115.414 19.2962L114.048 17.9138C113.349 18.6128 112.303 18.991 111.377 18.991" fill="#113255"/>
<path d="M146.028 13.5266C146.028 11.6903 144.708 10.0184 142.202 10.0027H127.624V11.9459H142.217C143.477 11.9459 144.022 12.7206 144.022 13.5709C144.022 14.4212 143.475 15.2715 142.199 15.2715H137.142V20.6316H139.145V17.0791H141.072L144.171 20.6316H146.555V20.4959L143.336 16.8678C145.355 16.4583 146.023 14.9846 146.023 13.5266" fill="#113255"/>
<path d="M135.298 14.3925H127.627V16.2601H135.298V14.3925Z" fill="#113255"/>
<path d="M116.557 20.6472H118.56V18.2633V16.3514V14.4995V13.8474V10.0184H116.557V20.6472Z" fill="#113255"/>
<path d="M123.784 14.4995H119.489V16.3514H123.784V20.6472H125.772V10.0184H123.784V14.4995Z" fill="#113255"/>
<path d="M93.0613 14.3925H85.3955V16.2601H93.0613V14.3925Z" fill="#113255"/>
<path d="M95.3726 20.6316H97.3783V15.0941L95.3726 12.7388V20.6316Z" fill="#113255"/>
<path d="M102.206 16.5939L97.0051 10.0132V10.0027H96.9972H94.921H85.3955V11.9485H96.3738L98.3483 14.7133L102.965 20.6472V20.6316H104.209V9.9897H102.206V16.5939Z" fill="#113255"/>
<path d="M82.3124 15.1359C83.2983 14.6951 83.6948 13.9074 83.6948 13.0858C83.6948 10.9443 82.1298 10.0027 80.0353 10.0027H75.0535V11.8259H80.0353C81.3108 11.8259 81.7046 12.6449 81.7046 13.1327C81.7046 13.7404 81.2951 14.2725 80.0353 14.2725H75.0535V16.0331H80.0353C80.8543 16.0331 82.0255 16.5339 82.0255 17.4912C82.0255 18.4484 80.8569 18.7666 80.0353 18.7666H75.0535V20.6342H80.0353C82.2367 20.6342 84.013 19.8751 84.013 17.5068C84.013 16.8391 83.5565 15.5193 82.3124 15.1385" fill="#113255"/>
<path d="M65.1082 20.6316H67.1139V19.3796V15.9262V14.4994V12.1285V10.0027H65.1082V20.6316Z" fill="#113255"/>
<path d="M73.6425 10.0653V10.0054H71.1516L68.2407 13.2449V17.1182L71.5611 20.6316H74.0364V20.5116L68.9215 15.1515L73.6425 10.0653Z" fill="#113255"/>
<path d="M47.372 10.0027L42.604 20.6316H44.7767L45.4888 19.0666L46.493 16.7608L48.4648 12.2354L49.9646 15.6732L49.9672 15.6758L50.4393 16.7608H50.4367L51.3053 18.764L52.1399 20.6316H54.3257L49.5577 10.0027H47.372Z" fill="#113255"/>
<path d="M152.059 14.1343C150.783 13.983 149.69 13.7248 149.69 12.7988C149.69 12.6475 149.716 12.5041 149.769 12.3684H147.739C147.726 12.4884 147.716 12.611 147.716 12.7388C147.716 15.1228 149.719 15.6992 151.892 15.9575C153.303 16.1087 154.351 16.5182 154.351 17.5224C154.351 18.6753 153.167 19.1161 151.907 19.1161C150.648 19.1161 149.388 18.5997 148.916 17.4312L147.246 18.2971C148.037 20.2403 149.706 20.908 151.879 20.908C154.247 20.908 156.341 19.8908 156.341 17.5224C156.341 14.9872 154.276 14.4107 152.061 14.1369" fill="#113255"/>
<path d="M154.411 12.5693L156.005 11.7503C155.345 10.407 154.072 9.84886 152.724 9.68975V11.4869C153.506 11.6773 154.137 12.1155 154.411 12.5693Z" fill="#113255"/>
<path d="M0.00261085 27.5776V31.8708H7.65797C7.27194 30.045 6.53118 28.6757 5.66001 27.648C4.79927 27.8984 3.88898 28.0366 2.94477 28.0366C1.9171 28.0366 0.928555 27.8775 0 27.5802" fill="#6AA8FB"/>
<path d="M12.6475 17.9451C12.5614 15.6655 11.6876 13.5893 10.2922 11.9747C7.35785 11.9747 4.73129 10.668 2.95243 8.61004C2.95243 8.61004 2.94982 8.61004 2.94721 8.61004C1.91954 8.61004 0.930996 8.77175 0.00244141 9.06649V24.5859C0.00244141 24.5859 3.31498 24.8728 5.66245 27.6454C6.58318 27.3768 7.44653 26.9777 8.23423 26.4665C7.99688 21.7924 10.2348 19.2858 12.6501 17.9477" fill="#6AA8FB"/>
<path d="M10.2924 11.9747C10.2924 11.9747 10.2976 11.9747 10.3002 11.9747C12.0791 11.9747 13.7458 11.4974 15.1803 10.6601C12.6346 6.64858 13.138 2.8196 13.138 2.8196H3.66991C3.43255 3.29952 2.6944 4.68453 1.41895 6.17909C1.81019 7.06591 2.32925 7.88491 2.95524 8.61002C5.88957 8.61002 8.51613 9.91678 10.295 11.9747" fill="#6AA8FB"/>
<path d="M15.1807 10.6627C16.1066 12.126 16.4274 12.645 17.8855 14.3691C17.8855 14.3691 20.8485 11.44 19.187 6.18168C18.355 8.06487 16.9465 9.63507 15.1807 10.6627Z" fill="#6AA8FB"/>
<path d="M3.67009 2.99437C3.72487 2.88221 3.75356 2.82222 3.75356 2.82222H0.122803V7.63975C0.634029 7.17808 1.09048 6.70076 1.49216 6.23387C1.04875 5.23489 0.774878 4.14202 0.70967 2.99698H3.6727L3.67009 2.99437Z" fill="#6AA8FB"/>
<path d="M23.8113 1.93535C22.0403 1.93535 20.6057 3.36991 20.6057 5.14094C20.6057 6.91198 22.0403 8.34654 23.8113 8.34654C25.5824 8.34654 27.0169 6.91198 27.0169 5.14094C27.0169 3.36991 25.5824 1.93535 23.8113 1.93535Z" fill="#6AA8FB"/>
<path d="M16.9878 16.5236C15.9054 16.6854 14.2387 17.061 12.6476 17.9452C12.6528 18.0704 12.658 18.1956 12.658 18.3208C12.658 21.735 10.8948 24.7346 8.23438 26.4639C8.31262 28.0158 8.66214 29.8025 9.3716 31.8657C9.3716 31.8657 16.2366 32.9351 20.0604 29.0409C12.7206 23.8973 16.9904 16.521 16.9904 16.521" fill="#6AA8FB"/>
<path d="M10.2924 11.9747C8.51353 9.9168 5.88437 8.61265 2.95264 8.61004C4.7315 10.668 7.36067 11.9721 10.2924 11.9747Z" fill="#2D69FF"/>
<path d="M0.00244141 24.5859V27.5776C0.930996 27.8723 1.91954 28.0341 2.94721 28.0341C3.88881 28.0341 4.79911 27.8984 5.66245 27.6454C3.31498 24.8728 0.00244141 24.5859 0.00244141 24.5859Z" fill="#2D69FF"/>
<path d="M0.605225 2.82222C0.67304 4.0116 0.957347 5.14361 1.4138 6.18171C2.69187 4.68976 3.42741 3.30476 3.66476 2.82222H0.605225Z" fill="#2D69FF"/>
<path d="M12.6582 18.3207C12.6582 18.1955 12.653 18.0703 12.6478 17.9451C10.2325 19.2858 7.99458 21.7898 8.23193 26.4638C10.895 24.7319 12.6556 21.7324 12.6556 18.3207" fill="#2D69FF"/>
<path d="M18.9518 2.80914C19.7264 2.80914 20.355 2.18054 20.355 1.40588C20.355 0.631212 19.7264 0 18.9518 0C18.1771 0 17.5459 0.628604 17.5459 1.40588C17.5459 2.18315 18.1745 2.80914 18.9518 2.80914Z" fill="#2D69FF"/>
<path d="M18.1774 16.4062C18.1774 16.4062 17.7131 16.4166 16.988 16.5236C16.988 16.5236 12.7182 23.8999 20.058 29.0434C20.7883 28.3001 21.4091 27.3741 21.8499 26.2265C24.5886 19.0667 18.1774 16.4062 18.1774 16.4062Z" fill="#2D69FF"/>
<path d="M14.6167 2.83266C14.5698 2.83005 14.5202 2.82483 14.4785 2.82222H13.1352C13.1352 2.82222 12.6344 6.6512 15.1775 10.6628C16.9433 9.6351 18.3518 8.0649 19.1838 6.18171C18.5239 4.05595 16.779 2.86917 14.6167 2.83266Z" fill="#2D69FF"/>
</svg>
