<svg width="24" height="24" viewBox="0 0 24 24" fill="none" xmlns="http://www.w3.org/2000/svg">
<g id="digital-marketing 1">
<g id="Digital Marketing">
<path id="Vector" d="M8 1.00844C7.89503 1.00844 8.27673 1.00844 2.13141 1.00844C1.89762 1.00844 1.58749 0.756879 4.99414 3L8 1.00844Z" fill="#FF6838"/>
<path id="Vector_2" d="M8.99657 6.8743C8.99657 1.98311 9.02156 2.24765 8.9366 2C4.9683 5.34897 5.23319 5.18574 4.99829 5.18574C4.76339 5.18574 4.99829 5.32083 1.05997 2C1 2.25328 1 2.01126 1 6.8743C1 7.17285 1.10531 7.45918 1.29277 7.67029C1.48022 7.8814 1.73447 8 1.99957 8H7.997C8.2621 8 8.51635 7.8814 8.7038 7.67029C8.89126 7.45918 8.99657 7.17285 8.99657 6.8743Z" fill="#FF6838"/>
<path id="Vector_3" d="M20 4L21 3.49819L20 3V4Z" fill="#FF6838"/>
<path id="Vector_4" d="M23 1H17C16.7348 1 16.4804 1.10536 16.2929 1.29289C16.1054 1.48043 16 1.73478 16 2V6C16 6.26522 16.1054 6.51957 16.2929 6.70711C16.4804 6.89464 16.7348 7 17 7H23C23.2652 7 23.5196 6.89464 23.7071 6.70711C23.8946 6.51957 24 6.26522 24 6V2C24 1.73478 23.8946 1.48043 23.7071 1.29289C23.5196 1.10536 23.2652 1 23 1ZM21.33 4.895C19.83 5.635 19.83 5.69 19.5 5.69C19.2348 5.69 18.9804 5.58464 18.7929 5.39711C18.6054 5.20957 18.5 4.95522 18.5 4.69C18.5 3.47 18.36 2.84 19 2.46C19.64 2.08 20.055 2.46 21.355 3.105C21.5203 3.19024 21.6585 3.31987 21.7542 3.47934C21.8498 3.63881 21.8992 3.82179 21.8966 4.00774C21.894 4.19368 21.8396 4.37522 21.7395 4.53196C21.6394 4.68869 21.4976 4.81441 21.33 4.895Z" fill="#FF6838"/>
<path id="Vector_5" d="M20 21C20.5523 21 21 20.5523 21 20C21 19.4477 20.5523 19 20 19C19.4477 19 19 19.4477 19 20C19 20.5523 19.4477 21 20 21Z" fill="#FF6838"/>
<path id="Vector_6" d="M23.535 19C23.4427 19.0005 23.3523 18.9735 23.2754 18.9224C23.1985 18.8713 23.1385 18.7985 23.1031 18.7133C23.0677 18.628 23.0585 18.5341 23.0767 18.4436C23.0948 18.3531 23.1395 18.27 23.205 18.205C23.2914 18.1179 23.3399 18.0002 23.3399 17.8775C23.3399 17.7548 23.2914 17.6371 23.205 17.55L22.45 16.795C22.4076 16.751 22.3567 16.716 22.3004 16.6921C22.2441 16.6682 22.1836 16.6559 22.1225 16.6559C22.0614 16.6559 22.0009 16.6682 21.9446 16.6921C21.8883 16.716 21.8374 16.751 21.795 16.795C21.73 16.8605 21.6469 16.9052 21.5564 16.9233C21.4659 16.9415 21.372 16.9323 21.2867 16.8969C21.2015 16.8615 21.1287 16.8015 21.0776 16.7246C21.0265 16.6477 20.9995 16.5573 21 16.465C21 16.3417 20.951 16.2234 20.8638 16.1362C20.7766 16.049 20.6583 16 20.535 16H19.465C19.3417 16 19.2234 16.049 19.1362 16.1362C19.049 16.2234 19 16.3417 19 16.465C19.0005 16.5573 18.9735 16.6477 18.9224 16.7246C18.8713 16.8015 18.7985 16.8615 18.7133 16.8969C18.628 16.9323 18.5341 16.9415 18.4436 16.9233C18.3531 16.9052 18.27 16.8605 18.205 16.795C18.1626 16.751 18.1117 16.716 18.0554 16.6921C17.9991 16.6682 17.9386 16.6559 17.8775 16.6559C17.8164 16.6559 17.7559 16.6682 17.6996 16.6921C17.6433 16.716 17.5924 16.751 17.55 16.795L16.795 17.55C16.7516 17.5928 16.7172 17.6438 16.6936 17.7C16.6701 17.7562 16.658 17.8166 16.658 17.8775C16.658 17.9384 16.6701 17.9988 16.6936 18.055C16.7172 18.1112 16.7516 18.1622 16.795 18.205C16.8581 18.2709 16.9007 18.3538 16.9175 18.4436C16.9343 18.5333 16.9247 18.626 16.8897 18.7103C16.8547 18.7946 16.7959 18.8669 16.7204 18.9183C16.645 18.9698 16.5563 18.9982 16.465 19C16.3417 19 16.2234 19.049 16.1362 19.1362C16.049 19.2234 16 19.3417 16 19.465V20.535C16 20.6583 16.049 20.7766 16.1362 20.8638C16.2234 20.951 16.3417 21 16.465 21C16.5573 20.9995 16.6477 21.0265 16.7246 21.0776C16.8015 21.1287 16.8615 21.2015 16.8969 21.2867C16.9323 21.372 16.9415 21.4659 16.9233 21.5564C16.9052 21.6469 16.8605 21.73 16.795 21.795C16.751 21.8374 16.716 21.8883 16.6921 21.9446C16.6682 22.0009 16.6559 22.0614 16.6559 22.1225C16.6559 22.1836 16.6682 22.2441 16.6921 22.3004C16.716 22.3567 16.751 22.4076 16.795 22.45L17.55 23.205C17.5924 23.249 17.6433 23.284 17.6996 23.3079C17.7559 23.3318 17.8164 23.3441 17.8775 23.3441C17.9386 23.3441 17.9991 23.3318 18.0554 23.3079C18.1117 23.284 18.1626 23.249 18.205 23.205C18.27 23.1395 18.3531 23.0948 18.4436 23.0767C18.5341 23.0585 18.628 23.0677 18.7133 23.1031C18.7985 23.1385 18.8713 23.1985 18.9224 23.2754C18.9735 23.3523 19.0005 23.4427 19 23.535C19 23.6583 19.049 23.7766 19.1362 23.8638C19.2234 23.951 19.3417 24 19.465 24H20.535C20.6583 24 20.7766 23.951 20.8638 23.8638C20.951 23.7766 21 23.6583 21 23.535C20.9995 23.4427 21.0265 23.3523 21.0776 23.2754C21.1287 23.1985 21.2015 23.1385 21.2867 23.1031C21.372 23.0677 21.4659 23.0585 21.5564 23.0767C21.6469 23.0948 21.73 23.1395 21.795 23.205C21.8374 23.249 21.8883 23.284 21.9446 23.3079C22.0009 23.3318 22.0614 23.3441 22.1225 23.3441C22.1836 23.3441 22.2441 23.3318 22.3004 23.3079C22.3567 23.284 22.4076 23.249 22.45 23.205L23.205 22.45C23.249 22.4076 23.284 22.3567 23.3079 22.3004C23.3318 22.2441 23.3441 22.1836 23.3441 22.1225C23.3441 22.0614 23.3318 22.0009 23.3079 21.9446C23.284 21.8883 23.249 21.8374 23.205 21.795C23.1395 21.73 23.0948 21.6469 23.0767 21.5564C23.0585 21.4659 23.0677 21.372 23.1031 21.2867C23.1385 21.2015 23.1985 21.1287 23.2754 21.0776C23.3523 21.0265 23.4427 20.9995 23.535 21C23.6583 21 23.7766 20.951 23.8638 20.8638C23.951 20.7766 24 20.6583 24 20.535V19.465C24 19.3417 23.951 19.2234 23.8638 19.1362C23.7766 19.049 23.6583 19 23.535 19ZM20 22C19.6044 22 19.2178 21.8827 18.8889 21.6629C18.56 21.4432 18.3036 21.1308 18.1522 20.7654C18.0009 20.3999 17.9613 19.9978 18.0384 19.6098C18.1156 19.2219 18.3061 18.8655 18.5858 18.5858C18.8655 18.3061 19.2219 18.1156 19.6098 18.0384C19.9978 17.9613 20.3999 18.0009 20.7654 18.1522C21.1308 18.3036 21.4432 18.56 21.6629 18.8889C21.8827 19.2178 22 19.6044 22 20C22 20.5304 21.7893 21.0391 21.4142 21.4142C21.0391 21.7893 20.5304 22 20 22Z" fill="#FF6838"/>
<path id="Vector_7" d="M4.30725 16L2.45826 17.8454C2.16482 18.1394 2 18.538 2 18.9536C2 19.3692 2.16482 19.7679 2.45826 20.0619L3.9364 21.5413C4.23021 21.835 4.62847 22 5.04371 22C5.45895 22 5.85721 21.835 6.15101 21.5413L8 19.696L4.30725 16Z" fill="#FF6838"/>
<path id="Vector_8" d="M8.38981 21L7 22.3912L8.38981 23.7775C8.57922 23.9322 8.81958 24.0111 9.06408 23.9987C9.30858 23.9864 9.53973 23.8838 9.71254 23.7108C9.88534 23.5378 9.98742 23.3069 9.99891 23.063C10.0104 22.819 9.93048 22.5796 9.7747 22.3912L8.38981 21Z" fill="#FF6838"/>
<path id="Vector_9" d="M4 15.2244L7.77556 19L14 16.0524L6.94763 9L4 15.2244Z" fill="#FF6838"/>
<path id="Vector_10" d="M11 11.0814L13.9186 14C14.027 13.5959 14.0271 13.1704 13.9189 12.7663C13.8107 12.3622 13.598 11.9937 13.3022 11.6978C13.0063 11.402 12.6378 11.1893 12.2337 11.0811C11.8296 10.9729 11.4041 10.973 11 11.0814Z" fill="#FF6838"/>
<path id="Vector_11" d="M14.487 11C14.7532 11 14.7629 10.9225 15.8569 9.82824C15.9481 9.73771 15.9995 9.61466 16 9.48618C16.0005 9.35769 15.9499 9.23428 15.8593 9.14311C15.7688 9.05193 15.6458 9.00046 15.5174 9C15.3889 8.99955 15.2655 9.05015 15.1744 9.14069L14.1481 10.1672C14.0785 10.2343 14.0305 10.3208 14.0105 10.4155C13.9905 10.5102 13.9992 10.6087 14.0357 10.6983C14.0722 10.788 14.1347 10.8646 14.2151 10.9184C14.2955 10.9721 14.3903 11.0006 14.487 11Z" fill="#FF6838"/>
<path id="Vector_12" d="M12 9.4V7.6C12 7.44087 11.9473 7.28826 11.8536 7.17574C11.7598 7.06321 11.6326 7 11.5 7C11.3674 7 11.2402 7.06321 11.1464 7.17574C11.0527 7.28826 11 7.44087 11 7.6V9.4C11 9.55913 11.0527 9.71174 11.1464 9.82426C11.2402 9.93679 11.3674 10 11.5 10C11.6326 10 11.7598 9.93679 11.8536 9.82426C11.9473 9.71174 12 9.55913 12 9.4Z" fill="#FF6838"/>
<path id="Vector_13" d="M16.4 11H14.6C14.4409 11 14.2883 11.0527 14.1757 11.1464C14.0632 11.2402 14 11.3674 14 11.5C14 11.6326 14.0632 11.7598 14.1757 11.8536C14.2883 11.9473 14.4409 12 14.6 12H16.4C16.5591 12 16.7117 11.9473 16.8243 11.8536C16.9368 11.7598 17 11.6326 17 11.5C17 11.3674 16.9368 11.2402 16.8243 11.1464C16.7117 11.0527 16.5591 11 16.4 11Z" fill="#FF6838"/>
</g>
</g>
</svg>
