<svg width="24" height="24" viewBox="0 0 24 24" fill="none" xmlns="http://www.w3.org/2000/svg">
<g id="logo-design 1">
<g id="Icons">
<path id="Vector" d="M22 6.77824C21.9991 7.92657 21.6525 9.04846 21.0048 10L20.5548 9.1374C21.076 8.18746 21.2691 7.09414 21.1045 6.02491C20.9399 4.95567 20.4266 3.96947 19.6433 3.21736C18.86 2.46525 17.8499 1.98868 16.7677 1.86067C15.6854 1.73265 14.5907 1.96024 13.6513 2.50857C13.4446 2.30829 13.2272 2.11926 13 1.94231C13.9421 1.3234 15.0479 0.9955 16.1777 1.00005C17.7214 1.00169 19.2013 1.61098 20.2929 2.69425C21.3844 3.77752 21.9983 5.24627 22 6.77824Z" fill="#FF6838"/>
<path id="Vector_2" d="M19 17C19.5523 17 20 16.5523 20 16C20 15.4477 19.5523 15 19 15C18.4477 15 18 15.4477 18 16C18 16.5523 18.4477 17 19 17Z" fill="#FF6838"/>
<path id="Vector_3" d="M8.00184 15C6.9067 15.0007 5.82669 14.7443 4.84869 14.2513C3.87069 13.7583 3.02201 13.0426 2.37092 12.1617C1.71984 11.2807 1.28453 10.2593 1.10003 9.17935C0.915518 8.09946 0.986961 6.99131 1.30861 5.94407C1.63025 4.89683 2.19312 3.93974 2.95192 3.14979C3.71073 2.35984 4.64428 1.7591 5.67748 1.39589C6.71068 1.03268 7.81468 0.917143 8.90065 1.05858C9.98662 1.20002 11.0242 1.59448 11.93 2.21022C12.3482 2.49048 12.733 2.81743 13.0772 3.18478C13.9473 4.09663 14.5532 5.22797 14.8301 6.45776C15.107 7.68755 15.0445 8.96951 14.6493 10.1665C14.4 10.0905 14.1591 9.98909 13.9305 9.86394C14.3929 8.38734 14.2882 6.7913 13.6369 5.38781C12.9856 3.98431 11.8345 2.87424 10.4086 2.27457C8.98273 1.6749 7.38454 1.62875 5.92645 2.14512C4.46836 2.6615 3.25517 3.70329 2.52402 5.06686C1.79287 6.43043 1.59632 8.01776 1.97278 9.51859C2.34924 11.0194 3.27165 12.3259 4.55972 13.1826C5.84779 14.0392 7.40893 14.3846 8.93798 14.1511C10.467 13.9176 11.8541 13.1221 12.828 11.92C13.0628 12.0472 13.3058 12.1587 13.5554 12.2537C12.904 13.1087 12.0637 13.8016 11.1004 14.278C10.137 14.7544 9.0765 15.0015 8.00184 15Z" fill="#FF6838"/>
<path id="Vector_4" d="M13.7259 11.8015C13.2767 11.6729 12.8474 11.4804 12.4509 11.2295C11.8739 10.8687 11.3725 10.395 10.9756 9.83576C10.5787 9.2765 10.2941 8.6427 10.1381 7.9708C9.98219 7.29891 9.95801 6.60218 10.067 5.92072C10.1759 5.23925 10.4159 4.58649 10.7731 4C10.9743 4.14651 11.1646 4.30802 11.3425 4.48321C10.7657 5.48356 10.5908 6.67282 10.8543 7.80184C11.1177 8.93087 11.7992 9.91206 12.756 10.5399C13.2087 10.8393 13.712 11.0501 14.2403 11.1617C14.8205 11.2843 15.4188 11.287 16 11.1695L15.5903 11.9775C14.9635 12.0373 14.3313 11.9776 13.7259 11.8015Z" fill="#FF6838"/>
<path id="Vector_5" d="M21.625 20H16.375C16.1679 20 16 20.1919 16 20.4286V22.5714C16 22.8081 16.1679 23 16.375 23H21.625C21.8321 23 22 22.8081 22 22.5714V20.4286C22 20.1919 21.8321 20 21.625 20Z" fill="#FF6838"/>
<path id="Vector_6" d="M22.8417 16.3477L20.7232 19H17.2745L15.158 16.3473C15.0698 16.2367 15.016 16.104 15.0031 15.965C14.9901 15.8259 15.0185 15.6861 15.0848 15.5621L18.5988 9V14.0315C18.2216 14.1255 17.893 14.3492 17.6743 14.6606C17.4557 14.9719 17.3622 15.3496 17.4113 15.7228C17.4604 16.096 17.6487 16.4391 17.941 16.6878C18.2332 16.9365 18.6094 17.0737 18.9989 17.0737C19.3884 17.0737 19.7645 16.9365 20.0568 16.6878C20.3491 16.4391 20.5374 16.096 20.5865 15.7228C20.6355 15.3496 20.542 14.9719 20.3234 14.6606C20.1048 14.3492 19.7761 14.1255 19.399 14.0315V9L22.9145 15.5609C22.9813 15.6851 23.0099 15.8252 22.997 15.9646C22.9841 16.1039 22.9302 16.2369 22.8417 16.3477Z" fill="#FF6838"/>
</g>
</g>
</svg>
