<svg width="24" height="24" viewBox="0 0 24 24" fill="none" xmlns="http://www.w3.org/2000/svg">
<g id="layer 1">
<g id="Layer 53">
<path id="Vector" d="M21.7687 15.5916L19.0311 13.9998L21.7687 12.4042C21.8379 12.3635 21.8954 12.3051 21.9354 12.235C21.9754 12.1648 21.9964 12.0853 21.9964 12.0044C21.9964 11.9235 21.9754 11.844 21.9354 11.7738C21.8954 11.7037 21.8379 11.6453 21.7687 11.6046L19.0348 10.009L21.754 8.42459C21.8309 8.3845 21.8946 8.32277 21.9375 8.24689C21.9678 8.19439 21.9877 8.13637 21.9958 8.07614C22.0039 8.01591 22.0002 7.95465 21.9849 7.89586C21.9696 7.83707 21.9429 7.78191 21.9064 7.73352C21.8699 7.68513 21.8244 7.64447 21.7723 7.61385L12.2312 2.06087C12.1613 2.02097 12.0822 2 12.0019 2C11.9215 2 11.8425 2.02097 11.7725 2.06087L2.23142 7.61385C2.16126 7.65434 2.10295 7.71282 2.0624 7.78335C2.02185 7.85389 2.00049 7.93398 2.00049 8.01552C2.00049 8.09706 2.02185 8.17715 2.0624 8.24769C2.10295 8.31822 2.16126 8.37669 2.23142 8.41718L4.96531 10.009L2.22775 11.6046C2.15845 11.6453 2.10096 11.7037 2.06099 11.7738C2.02103 11.844 2 11.9235 2 12.0044C2 12.0853 2.02103 12.1648 2.06099 12.235C2.10096 12.3051 2.15845 12.3635 2.22775 12.4042L4.96531 13.9998L2.23142 15.5916C2.16126 15.6321 2.10295 15.6906 2.0624 15.7611C2.02185 15.8317 2.00049 15.9118 2.00049 15.9933C2.00049 16.0748 2.02185 16.1549 2.0624 16.2255C2.10295 16.296 2.16126 16.3545 2.23142 16.395L11.7725 21.9479C11.8415 21.9844 11.9186 22.0023 11.9964 21.9998C12.0775 21.9991 12.1571 21.9775 12.2276 21.9368L21.7687 16.3839C21.8379 16.3426 21.8953 16.2839 21.9351 16.2134C21.975 16.143 21.9959 16.0633 21.9959 15.9822C21.9959 15.9011 21.975 15.8214 21.9351 15.7509C21.8953 15.6805 21.8379 15.6218 21.7687 15.5805V15.5916ZM3.37268 12.0044L5.87906 10.5458L11.7505 13.9739C11.8195 14.0148 11.898 14.0365 11.978 14.0368C12.0592 14.0362 12.1388 14.0145 12.2092 13.9739L18.0807 10.5458L20.6201 12.0044L11.9964 17.028L3.37268 12.0044ZM11.9964 21.015L3.37268 15.9951L5.87906 14.5144L11.7505 17.9424C11.8194 17.9834 11.898 18.0051 11.978 18.0051C12.058 18.0051 12.1366 17.9834 12.2055 17.9424L18.0953 14.5144L20.6017 15.9951L11.9964 21.015Z" fill="#AF60ED"/>
</g>
</g>
</svg>
