<svg width="24" height="24" viewBox="0 0 24 24" fill="none" xmlns="http://www.w3.org/2000/svg">
<g id="graphic-design 1">
<g id="Group">
<path id="Vector" d="M16.3322 12.082C16.2221 12.9481 15.8176 13.7737 15.1513 14.4154C14.3413 15.1958 13.2092 15.5632 11.7875 15.5079C10.7903 15.4696 10.3298 15.7208 10.2542 15.7665C9.94878 16.0241 9.56103 16.1652 9.15175 16.1652C8.70416 16.1652 8.28339 15.9974 7.96697 15.6927C7.42078 15.1667 7.3327 14.3554 7.7056 13.7373L7.97319 13.3289C8.06415 13.1155 8.18717 12.6941 8.15845 12.0133C8.10148 10.6438 8.48301 9.55404 9.29296 8.77409C9.95644 8.13565 10.8047 7.74014 11.7219 7.63458C11.8516 7.03394 12.1326 6.47203 12.5381 6H2.91719C1.86022 6 1 6.82789 1 7.8457V17H21V7.91024L18.5697 10.7784C17.9981 11.4509 17.2044 11.9086 16.3322 12.082Z" fill="#58BD7D"/>
<path id="Vector_2" d="M1.00005 18.6555C1.00005 19.7856 1.86027 20.7053 2.91723 20.7053H8.36573V22.4638H7.15807C6.76151 22.4638 6.44002 22.8077 6.44002 23.2319C6.44002 23.6561 6.76151 24 7.15807 24H14.8418C15.2383 24 15.5598 23.6561 15.5598 23.2319C15.5598 22.8077 15.2383 22.4638 14.8418 22.4638H13.6341V20.7053H19.0828C20.1398 20.7053 21 19.7856 21 18.6555V18H1V18.6555H1.00005Z" fill="#58BD7D"/>
<path id="Vector_3" d="M9.06957 14.5929C9.06943 14.593 9.06929 14.5931 9.06919 14.5933C9.06909 14.5933 9.06905 14.5934 9.069 14.5934L9.06881 14.5936C9.06871 14.5937 9.06867 14.5938 9.06857 14.5939C9.06852 14.594 9.06847 14.594 9.06833 14.5941L9.06828 14.5942C9.06824 14.5943 9.06814 14.5943 9.06804 14.5944C9.06804 14.5944 9.06804 14.5944 9.068 14.5944C9.06795 14.5945 9.06785 14.5946 9.06781 14.5947C9.06781 14.5947 9.06781 14.5947 9.06776 14.5947C9.06766 14.5948 9.06762 14.5949 9.06752 14.595C9.06752 14.595 9.06752 14.595 9.06747 14.595L9.06723 14.5953C8.9767 14.6887 8.97761 14.8378 9.06991 14.9301C9.11656 14.9767 9.17763 15 9.23875 15C9.2993 15 9.35984 14.9771 9.40631 14.9314C9.42092 14.9175 10.1442 14.249 11.9259 14.3206C12.9284 14.361 13.6969 14.1209 14.2106 13.6074C15.2631 12.5551 15.2631 10.8429 14.2106 9.79053C13.7007 9.28076 13.0228 9 12.3017 9C11.5807 9 10.9027 9.28071 10.3929 9.79053C9.87927 10.304 9.63923 11.0725 9.67953 12.0747C9.75154 13.8657 9.07535 14.5869 9.06991 14.5925C9.06972 14.5927 9.06967 14.5928 9.06957 14.5929Z" fill="#58BD7D"/>
<path id="Vector_4" d="M15.9569 11C16.4077 10.865 16.8137 10.5978 17.1166 10.2278L18 9.14566L14.8529 6L13.7748 6.88017C13.4038 7.18241 13.1355 7.58785 13 8.03844C13.7126 8.20569 14.3662 8.56828 14.8967 9.09858C15.4397 9.64131 15.7932 10.3025 15.9569 11Z" fill="#58BD7D"/>
<path id="Vector_5" d="M23.5596 0.440218C23.0135 -0.105701 22.1501 -0.149199 21.5517 0.339538L16 4.87272L19.1282 8L23.6608 2.44702C24.1492 1.84925 24.1057 0.986137 23.5596 0.440218Z" fill="#58BD7D"/>
</g>
</g>
</svg>
