<svg width="31" height="24" viewBox="0 0 31 24" fill="none" xmlns="http://www.w3.org/2000/svg">
<g id="Dribbble">
<path id="Vector" d="M17.7153 20C13.3053 20 9.71533 16.41 9.71533 12C9.71533 7.59 13.3053 4 17.7153 4C22.1253 4 25.7153 7.6 25.7153 12C25.7153 16.4 22.1253 20 17.7153 20ZM24.4653 13.1C24.2353 13.03 22.3453 12.46 20.2053 12.81C21.0953 15.31 21.5053 17.31 21.5053 17.68C23.0653 16.6 24.1153 15 24.5153 13.1H24.4653ZM20.3853 18.3C20.2853 17.7 19.8853 15.61 18.9253 13.12C18.9053 13.12 18.8953 13.13 18.8753 13.13C15.0253 14.47 13.6353 17.15 13.5153 17.4C14.6753 18.3 16.1153 18.8 17.7153 18.8C18.6653 18.8 19.6153 18.6 20.4153 18.3H20.3853ZM12.6353 16.58C12.7853 16.31 14.6653 13.21 18.1853 12.07C18.2753 12.04 18.3653 12.01 18.4553 11.99C18.2853 11.6 18.0953 11.21 17.9053 10.83C14.4953 11.85 11.1853 11.81 10.8853 11.8C10.8853 11.9 10.8853 11.9 10.8853 12.01C10.8853 13.8 11.5153 15.4 12.6153 16.58L12.6353 16.6V16.58ZM11.0253 10.61C11.3353 10.61 14.1253 10.61 17.3453 9.78C16.2153 7.77 14.9953 6.08 14.8153 5.83C12.8953 6.7 11.5153 8.5 11.0153 10.61H11.0253ZM16.1153 5.4C16.3053 5.6 17.5153 7.3 18.6153 9.4C21.0453 8.49 22.0753 7.11 22.1953 6.93C21.0353 5.8 19.4153 5.2 17.7153 5.18C17.1653 5.2 16.6153 5.2 16.1153 5.4ZM23.0053 7.69C22.8653 7.88 21.7153 9.35 19.1853 10.38C19.3453 10.68 19.4853 11.08 19.6853 11.37C19.7353 11.47 19.7853 11.57 19.7853 11.67C22.0553 11.38 24.2853 11.87 24.5853 11.89C24.5353 10.3 23.9153 8.8 23.0153 7.69H23.0053Z" fill="#6A3FE2"/>
</g>
</svg>
