<svg width="31" height="24" viewBox="0 0 31 24" fill="none" xmlns="http://www.w3.org/2000/svg">
<g id="IG">
<g id="Group">
<path id="Vector" d="M17.7153 5.4C19.8153 5.4 20.1153 5.4 20.9153 5.4C21.7153 5.4 22.1153 5.6 22.4153 5.7C22.8153 5.8 23.0153 6 23.3153 6.3C23.6153 6.6 23.8153 6.8 23.9153 7.2C24.0153 7.5 24.1153 7.9 24.2153 8.7C24.2153 9.5 24.2153 9.8 24.2153 11.9C24.2153 14 24.2153 14.3 24.2153 15.1C24.2153 15.9 24.0153 16.3 23.9153 16.6C23.8153 17 23.6153 17.2 23.3153 17.5C23.0153 17.8 22.8153 18 22.4153 18.1C22.1153 18.2 21.7153 18.3 20.9153 18.4C20.1153 18.4 19.8153 18.4 17.7153 18.4C15.6153 18.4 15.3153 18.4 14.5153 18.4C13.7153 18.4 13.3153 18.2 13.0153 18.1C12.6153 18 12.4153 17.8 12.1153 17.5C11.8153 17.2 11.6153 17 11.5153 16.6C11.4153 16.3 11.3153 15.9 11.2153 15.1C11.2153 14.3 11.2153 14 11.2153 11.9C11.2153 9.8 11.2153 9.5 11.2153 8.7C11.2153 7.9 11.4153 7.5 11.5153 7.2C11.6153 6.8 11.8153 6.6 12.1153 6.3C12.4153 6 12.6153 5.8 13.0153 5.7C13.3153 5.6 13.7153 5.5 14.5153 5.4C15.3153 5.4 15.6153 5.4 17.7153 5.4ZM17.7153 4C15.5153 4 15.3153 4 14.4153 4C13.5153 4 13.0153 4.2 12.5153 4.4C12.0153 4.6 11.5153 4.9 11.1153 5.3C10.6153 5.8 10.3153 6.2 10.1153 6.8C9.91533 7.3 9.81533 7.9 9.71533 8.7C9.71533 9.6 9.71533 9.8 9.71533 12C9.71533 14.2 9.71533 14.4 9.71533 15.3C9.71533 16.2 9.91533 16.7 10.1153 17.2C10.3153 17.7 10.6153 18.2 11.0153 18.6C11.4153 19 11.9153 19.3 12.4153 19.5C12.9153 19.7 13.5153 19.8 14.3153 19.9C15.2153 19.9 15.4153 19.9 17.6153 19.9C19.8153 19.9 20.0153 19.9 20.9153 19.9C21.8153 19.9 22.3153 19.7 22.8153 19.5C23.3153 19.3 23.8153 19 24.2153 18.6C24.6153 18.2 24.9153 17.7 25.1153 17.2C25.3153 16.7 25.4153 16.1 25.5153 15.3C25.5153 14.4 25.5153 14.2 25.5153 12C25.5153 9.8 25.5153 9.6 25.5153 8.7C25.5153 7.8 25.3153 7.3 25.1153 6.8C24.9153 6.3 24.6153 5.8 24.2153 5.4C23.8153 5 23.3153 4.7 22.8153 4.5C22.3153 4.3 21.7153 4.2 20.9153 4.1C20.1153 4 19.9153 4 17.7153 4Z" fill="#6A3FE2"/>
<path id="Vector_2" d="M17.7157 7.90039C15.4157 7.90039 13.6157 9.70039 13.6157 12.0004C13.6157 14.3004 15.4157 16.1004 17.7157 16.1004C20.0157 16.1004 21.8157 14.3004 21.8157 12.0004C21.8157 9.70039 20.0157 7.90039 17.7157 7.90039ZM17.7157 14.7004C16.2157 14.7004 15.0157 13.5004 15.0157 12.0004C15.0157 10.5004 16.2157 9.30039 17.7157 9.30039C19.2157 9.30039 20.4157 10.5004 20.4157 12.0004C20.4157 13.5004 19.2157 14.7004 17.7157 14.7004Z" fill="#6A3FE2"/>
<path id="Vector_3" d="M22.9153 7.69995C22.9153 8.19995 22.5153 8.69995 21.9153 8.69995C21.3153 8.69995 20.9153 8.29995 20.9153 7.69995C20.9153 7.09995 21.3153 6.69995 21.9153 6.69995C22.5153 6.69995 22.9153 7.19995 22.9153 7.69995Z" fill="#6A3FE2"/>
</g>
</g>
</svg>
