<svg width="31" height="24" viewBox="0 0 31 24" fill="none" xmlns="http://www.w3.org/2000/svg">
<g id="Link">
<path id="path-1_24_" d="M22.3153 19V13.2C22.3153 11.8 21.8153 10.8 20.6153 10.8C19.6153 10.8 19.1153 11.5 18.8153 12.1C18.7153 12.3 18.7153 12.6 18.7153 13V19H15.3153C15.3153 19 15.4153 9.2 15.3153 8.2H18.7153V9.7C19.1153 9 19.9153 7.9 21.7153 7.9C24.0153 7.9 25.7153 9.4 25.7153 12.8V19H22.3153ZM11.6153 6.7C10.4153 6.7 9.71533 5.9 9.71533 4.9C9.71533 3.8 10.5153 3 11.6153 3C12.7153 3 13.5153 3.8 13.5153 4.9C13.6153 5.9 12.8153 6.7 11.6153 6.7ZM13.3153 19H9.91533V8.2H13.3153V19Z" fill="#6A3FE2"/>
</g>
</svg>
