<svg width="31" height="24" viewBox="0 0 31 24" fill="none" xmlns="http://www.w3.org/2000/svg">
<g id="X">
<path id="Vector" d="M27.4254 5.89C26.7154 6.2 25.9154 6.4 25.1154 6.53C25.9354 6.03 26.5654 5.24 26.8654 4.3C26.0954 4.76 25.2454 5.1 24.3354 5.3C23.6354 4.5 22.6154 4 21.4154 4C19.2154 4 17.4254 5.81 17.4254 8.04C17.4254 8.34 17.4254 8.64 17.5254 8.96C14.2554 8.8 11.3154 7.2 9.31537 4.7C9.01537 5.3 8.81537 6 8.81537 6.77C8.81537 8.17 9.51537 9.37 10.6154 10.13C9.96537 10.11 9.34537 9.93 8.80537 9.62C8.80537 9.62 8.80537 9.62 8.80537 9.72C8.80537 11.72 10.2054 13.32 12.0054 13.68C11.6654 13.77 11.3154 13.82 10.9554 13.82C10.6954 13.82 10.4454 13.79 10.2054 13.75C10.7154 15.35 12.2054 16.55 13.9054 16.55C12.5454 17.63 10.8254 18.28 8.95537 18.28C8.63537 18.28 8.31537 18.26 8.00537 18.22C9.76537 19.3 11.8154 20 14.1154 20C21.4454 20 25.4554 13.85 25.4554 8.51C25.4554 8.33 25.4554 8.16 25.4454 7.99C26.2154 7.4 26.9154 6.7 27.4154 5.89H27.4254Z" fill="#6A3FE2"/>
</g>
</svg>
